<svg width="54" height="21" viewBox="0 0 54 21" fill="none" xmlns="http://www.w3.org/2000/svg">
<mask id="path-1-outside-1_2097_2779" maskUnits="userSpaceOnUse" x="0" y="6.10352e-05" width="54" height="21" fill="black">
<rect fill="white" y="6.10352e-05" width="54" height="21"/>
<path d="M6.00927 16.4773V4.13642H9.44393V16.4773H6.00927ZM1.55189 12.0285V8.58529H13.8928V12.0285H1.55189ZM22.4091 19.0001V15.966L28.7756 10.3921C29.2529 9.96029 29.6591 9.5654 29.9944 9.20745C30.3296 8.84381 30.5853 8.48017 30.7614 8.11654C30.9375 7.74722 31.0256 7.34665 31.0256 6.91483C31.0256 6.43188 30.9205 6.01995 30.7103 5.67904C30.5 5.33245 30.2103 5.0654 29.841 4.8779C29.4716 4.6904 29.0483 4.59665 28.5711 4.59665C28.0881 4.59665 27.6648 4.69608 27.3012 4.89495C26.9375 5.08813 26.6535 5.36938 26.4489 5.7387C26.25 6.10802 26.1506 6.55688 26.1506 7.08529H22.1535C22.1535 5.89779 22.4205 4.87222 22.9546 4.00858C23.4887 3.14495 24.2387 2.48017 25.2046 2.01427C26.1762 1.54267 27.304 1.30688 28.5881 1.30688C29.912 1.30688 31.0625 1.52847 32.0398 1.97165C33.0171 2.41483 33.7728 3.03415 34.3069 3.82961C34.8466 4.61938 35.1165 5.53699 35.1165 6.58245C35.1165 7.24722 34.983 7.90631 34.716 8.55972C34.4489 9.21313 33.9688 9.93472 33.2756 10.7245C32.5881 11.5143 31.6108 12.4603 30.3438 13.5626L28.2557 15.4887V15.5995H35.3296V19.0001H22.4091ZM44.9326 19.4262C43.4098 19.4262 42.0973 19.0654 40.9951 18.3438C39.8928 17.6165 39.0434 16.5739 38.4468 15.216C37.8502 13.8523 37.5547 12.2131 37.5604 10.2984C37.5661 8.38358 37.8644 6.75858 38.4553 5.42336C39.0519 4.08245 39.8985 3.06256 40.9951 2.3637C42.0973 1.65915 43.4098 1.30688 44.9326 1.30688C46.4553 1.30688 47.7678 1.65915 48.8701 2.3637C49.978 3.06256 50.8303 4.08245 51.4269 5.42336C52.0235 6.76427 52.3189 8.38927 52.3133 10.2984C52.3133 12.2188 52.015 13.8609 51.4184 15.2245C50.8218 16.5881 49.9723 17.6307 48.8701 18.3523C47.7735 19.0682 46.461 19.4262 44.9326 19.4262ZM44.9326 15.9745C45.8417 15.9745 46.5775 15.5114 47.14 14.5853C47.7025 13.6535 47.9809 12.2245 47.9752 10.2984C47.9752 9.03699 47.8473 7.99722 47.5917 7.17904C47.336 6.35517 46.9809 5.74154 46.5263 5.33813C46.0718 4.93472 45.5405 4.73302 44.9326 4.73302C44.0292 4.73302 43.299 5.1904 42.7422 6.10517C42.1854 7.01427 41.9042 8.41199 41.8985 10.2984C41.8928 11.5768 42.015 12.6364 42.265 13.4773C42.5206 14.3182 42.8786 14.9461 43.3388 15.3609C43.799 15.7699 44.3303 15.9745 44.9326 15.9745Z"/>
</mask>
<path d="M6.00927 16.4773V4.13642H9.44393V16.4773H6.00927ZM1.55189 12.0285V8.58529H13.8928V12.0285H1.55189ZM22.4091 19.0001V15.966L28.7756 10.3921C29.2529 9.96029 29.6591 9.5654 29.9944 9.20745C30.3296 8.84381 30.5853 8.48017 30.7614 8.11654C30.9375 7.74722 31.0256 7.34665 31.0256 6.91483C31.0256 6.43188 30.9205 6.01995 30.7103 5.67904C30.5 5.33245 30.2103 5.0654 29.841 4.8779C29.4716 4.6904 29.0483 4.59665 28.5711 4.59665C28.0881 4.59665 27.6648 4.69608 27.3012 4.89495C26.9375 5.08813 26.6535 5.36938 26.4489 5.7387C26.25 6.10802 26.1506 6.55688 26.1506 7.08529H22.1535C22.1535 5.89779 22.4205 4.87222 22.9546 4.00858C23.4887 3.14495 24.2387 2.48017 25.2046 2.01427C26.1762 1.54267 27.304 1.30688 28.5881 1.30688C29.912 1.30688 31.0625 1.52847 32.0398 1.97165C33.0171 2.41483 33.7728 3.03415 34.3069 3.82961C34.8466 4.61938 35.1165 5.53699 35.1165 6.58245C35.1165 7.24722 34.983 7.90631 34.716 8.55972C34.4489 9.21313 33.9688 9.93472 33.2756 10.7245C32.5881 11.5143 31.6108 12.4603 30.3438 13.5626L28.2557 15.4887V15.5995H35.3296V19.0001H22.4091ZM44.9326 19.4262C43.4098 19.4262 42.0973 19.0654 40.9951 18.3438C39.8928 17.6165 39.0434 16.5739 38.4468 15.216C37.8502 13.8523 37.5547 12.2131 37.5604 10.2984C37.5661 8.38358 37.8644 6.75858 38.4553 5.42336C39.0519 4.08245 39.8985 3.06256 40.9951 2.3637C42.0973 1.65915 43.4098 1.30688 44.9326 1.30688C46.4553 1.30688 47.7678 1.65915 48.8701 2.3637C49.978 3.06256 50.8303 4.08245 51.4269 5.42336C52.0235 6.76427 52.3189 8.38927 52.3133 10.2984C52.3133 12.2188 52.015 13.8609 51.4184 15.2245C50.8218 16.5881 49.9723 17.6307 48.8701 18.3523C47.7735 19.0682 46.461 19.4262 44.9326 19.4262ZM44.9326 15.9745C45.8417 15.9745 46.5775 15.5114 47.14 14.5853C47.7025 13.6535 47.9809 12.2245 47.9752 10.2984C47.9752 9.03699 47.8473 7.99722 47.5917 7.17904C47.336 6.35517 46.9809 5.74154 46.5263 5.33813C46.0718 4.93472 45.5405 4.73302 44.9326 4.73302C44.0292 4.73302 43.299 5.1904 42.7422 6.10517C42.1854 7.01427 41.9042 8.41199 41.8985 10.2984C41.8928 11.5768 42.015 12.6364 42.265 13.4773C42.5206 14.3182 42.8786 14.9461 43.3388 15.3609C43.799 15.7699 44.3303 15.9745 44.9326 15.9745Z" fill="white"/>
<path d="M6.00927 16.4773H5.00927V17.4773H6.00927V16.4773ZM6.00927 4.13642V3.13642H5.00927V4.13642H6.00927ZM9.44393 4.13642H10.4439V3.13642H9.44393V4.13642ZM9.44393 16.4773V17.4773H10.4439V16.4773H9.44393ZM1.55189 12.0285H0.551888V13.0285H1.55189V12.0285ZM1.55189 8.58529V7.58529H0.551888V8.58529H1.55189ZM13.8928 8.58529H14.8928V7.58529H13.8928V8.58529ZM13.8928 12.0285V13.0285H14.8928V12.0285H13.8928ZM6.00927 16.4773H7.00927V4.13642H6.00927H5.00927V16.4773H6.00927ZM6.00927 4.13642V5.13642H9.44393V4.13642V3.13642H6.00927V4.13642ZM9.44393 4.13642H8.44393V16.4773H9.44393H10.4439V4.13642H9.44393ZM9.44393 16.4773V15.4773H6.00927V16.4773V17.4773H9.44393V16.4773ZM1.55189 12.0285H2.55189V8.58529H1.55189H0.551888V12.0285H1.55189ZM1.55189 8.58529V9.58529H13.8928V8.58529V7.58529H1.55189V8.58529ZM13.8928 8.58529H12.8928V12.0285H13.8928H14.8928V8.58529H13.8928ZM13.8928 12.0285V11.0285H1.55189V12.0285V13.0285H13.8928V12.0285ZM22.4091 19.0001H21.4091V20.0001H22.4091V19.0001ZM22.4091 15.966L21.7504 15.2136L21.4091 15.5124V15.966H22.4091ZM28.7756 10.3921L29.4343 11.1445L29.4405 11.1391L29.4465 11.1336L28.7756 10.3921ZM29.9944 9.20745L30.7243 9.89102L30.7296 9.88525L29.9944 9.20745ZM30.7614 8.11654L31.6614 8.55247L31.664 8.54701L30.7614 8.11654ZM30.7103 5.67904L29.8552 6.19766L29.8591 6.20393L30.7103 5.67904ZM29.841 4.8779L29.3883 5.76957L29.3883 5.76957L29.841 4.8779ZM27.3012 4.89495L27.7704 5.77813L27.781 5.77232L27.3012 4.89495ZM26.4489 5.7387L25.5741 5.25416L25.5684 5.2646L26.4489 5.7387ZM26.1506 7.08529V8.08529H27.1506V7.08529H26.1506ZM22.1535 7.08529H21.1535V8.08529H22.1535V7.08529ZM22.9546 4.00858L23.8051 4.53455L23.8051 4.53455L22.9546 4.00858ZM25.2046 2.01427L25.639 2.91496L25.6412 2.91389L25.2046 2.01427ZM32.0398 1.97165L32.4528 1.06092L32.4528 1.06092L32.0398 1.97165ZM34.3069 3.82961L33.4766 4.38706L33.4813 4.39386L34.3069 3.82961ZM34.716 8.55972L33.7903 8.1814L33.7903 8.1814L34.716 8.55972ZM33.2756 10.7245L32.524 10.0648L32.5214 10.0679L33.2756 10.7245ZM30.3438 13.5626L29.6874 12.8081L29.6765 12.8177L29.6658 12.8275L30.3438 13.5626ZM28.2557 15.4887L27.5777 14.7537L27.2557 15.0507V15.4887H28.2557ZM28.2557 15.5995H27.2557V16.5995H28.2557V15.5995ZM35.3296 15.5995H36.3296V14.5995H35.3296V15.5995ZM35.3296 19.0001V20.0001H36.3296V19.0001H35.3296ZM22.4091 19.0001H23.4091V15.966H22.4091H21.4091V19.0001H22.4091ZM22.4091 15.966L23.0679 16.7184L29.4343 11.1445L28.7756 10.3921L28.1169 9.63972L21.7504 15.2136L22.4091 15.966ZM28.7756 10.3921L29.4465 11.1336C29.9383 10.6887 30.3654 10.2742 30.7243 9.891L29.9944 9.20745L29.2645 8.52389C28.9528 8.85664 28.5674 9.23191 28.1047 9.65057L28.7756 10.3921ZM29.9944 9.20745L30.7296 9.88525C31.117 9.46501 31.4342 9.02153 31.6614 8.55247L30.7614 8.11654L29.8614 7.68061C29.7364 7.93882 29.5422 8.22261 29.2591 8.52964L29.9944 9.20745ZM30.7614 8.11654L31.664 8.54701C31.9078 8.03583 32.0256 7.48716 32.0256 6.91483H31.0256H30.0256C30.0256 7.20614 29.9673 7.45861 29.8588 7.68607L30.7614 8.11654ZM31.0256 6.91483H32.0256C32.0256 6.28487 31.8873 5.68259 31.5614 5.15415L30.7103 5.67904L29.8591 6.20393C29.9537 6.35731 30.0256 6.57889 30.0256 6.91483H31.0256ZM30.7103 5.67904L31.5653 5.16043C31.2562 4.65079 30.8254 4.25621 30.2936 3.98623L29.841 4.8779L29.3883 5.76957C29.5951 5.8746 29.7439 6.01411 29.8553 6.19765L30.7103 5.67904ZM29.841 4.8779L30.2936 3.98623C29.7641 3.71738 29.1816 3.59665 28.5711 3.59665V4.59665V5.59665C28.9151 5.59665 29.1792 5.66342 29.3883 5.76957L29.841 4.8779ZM28.5711 4.59665V3.59665C27.9483 3.59665 27.3548 3.72587 26.8214 4.01758L27.3012 4.89495L27.781 5.77232C27.9749 5.6663 28.2279 5.59665 28.5711 5.59665V4.59665ZM27.3012 4.89495L26.832 4.01183C26.2929 4.29823 25.8699 4.72008 25.5741 5.2542L26.4489 5.7387L27.3237 6.2232C27.437 6.01867 27.5822 5.87803 27.7703 5.77806L27.3012 4.89495ZM26.4489 5.7387L25.5684 5.2646C25.2733 5.81268 25.1506 6.43351 25.1506 7.08529H26.1506H27.1506C27.1506 6.68025 27.2268 6.40335 27.3294 6.2128L26.4489 5.7387ZM26.1506 7.08529V6.08529H22.1535V7.08529V8.08529H26.1506V7.08529ZM22.1535 7.08529H23.1535C23.1535 6.05163 23.3843 5.21502 23.8051 4.53455L22.9546 4.00858L22.1041 3.48261C21.4567 4.52942 21.1535 5.74395 21.1535 7.08529H22.1535ZM22.9546 4.00858L23.8051 4.53455C24.2333 3.84216 24.8346 3.30299 25.639 2.91496L25.2046 2.01427L24.7701 1.11357C23.6428 1.65735 22.7441 2.44773 22.1041 3.48262L22.9546 4.00858ZM25.2046 2.01427L25.6412 2.91389C26.4534 2.5197 27.427 2.30688 28.5881 2.30688V1.30688V0.306879C27.1811 0.306879 25.899 0.565652 24.7679 1.11464L25.2046 2.01427ZM28.5881 1.30688V2.30688C29.802 2.30688 30.8059 2.51011 31.6268 2.88238L32.0398 1.97165L32.4528 1.06092C31.3192 0.546834 30.022 0.306879 28.5881 0.306879V1.30688ZM32.0398 1.97165L31.6268 2.88238C32.4558 3.2583 33.0582 3.7638 33.4766 4.38704L34.3069 3.82961L35.1371 3.27217C34.4874 2.3045 33.5784 1.57136 32.4528 1.06092L32.0398 1.97165ZM34.3069 3.82961L33.4813 4.39386C33.8969 5.00195 34.1165 5.71878 34.1165 6.58245H35.1165H36.1165C36.1165 5.3552 35.7964 4.23681 35.1325 3.26535L34.3069 3.82961ZM35.1165 6.58245H34.1165C34.1165 7.1096 34.0113 7.64056 33.7903 8.1814L34.716 8.55972L35.6416 8.93804C35.9547 8.17206 36.1165 7.38484 36.1165 6.58245H35.1165ZM34.716 8.55972L33.7903 8.1814C33.5804 8.69486 33.1762 9.3218 32.524 10.0648L33.2756 10.7245L34.0272 11.3841C34.7614 10.5476 35.3174 9.7314 35.6416 8.93804L34.716 8.55972ZM33.2756 10.7245L32.5214 10.0679C31.8767 10.8085 30.9377 11.7204 29.6874 12.8081L30.3438 13.5626L31.0001 14.317C32.2839 13.2002 33.2995 12.22 34.0299 11.3811L33.2756 10.7245ZM30.3438 13.5626L29.6658 12.8275L27.5777 14.7537L28.2557 15.4887L28.9338 16.2237L31.0218 14.2976L30.3438 13.5626ZM28.2557 15.4887H27.2557V15.5995H28.2557H29.2557V15.4887H28.2557ZM28.2557 15.5995V16.5995H35.3296V15.5995V14.5995H28.2557V15.5995ZM35.3296 15.5995H34.3296V19.0001H35.3296H36.3296V15.5995H35.3296ZM35.3296 19.0001V18.0001H22.4091V19.0001V20.0001H35.3296V19.0001ZM40.9951 18.3438L40.4443 19.1785L40.4474 19.1805L40.9951 18.3438ZM38.4468 15.216L37.5306 15.6168L37.5312 15.6182L38.4468 15.216ZM37.5604 10.2984L36.5604 10.2954L36.5604 10.2954L37.5604 10.2984ZM38.4553 5.42336L37.5416 5.01686L37.5408 5.01866L38.4553 5.42336ZM40.9951 2.3637L41.5325 3.207L41.5336 3.20628L40.9951 2.3637ZM48.8701 2.3637L48.3315 3.2063L48.3366 3.2095L48.8701 2.3637ZM51.4269 5.42336L52.3405 5.01686L52.3405 5.01686L51.4269 5.42336ZM52.3133 10.2984L51.3133 10.2954V10.2984H52.3133ZM51.4184 15.2245L50.5022 14.8237L50.5022 14.8237L51.4184 15.2245ZM48.8701 18.3523L49.4167 19.1897L49.4178 19.189L48.8701 18.3523ZM47.14 14.5853L47.9947 15.1044L47.9961 15.1021L47.14 14.5853ZM47.9752 10.2984L46.9752 10.2984L46.9752 10.3013L47.9752 10.2984ZM47.5917 7.17904L46.6366 7.47544L46.6372 7.47731L47.5917 7.17904ZM46.5263 5.33813L47.1901 4.5902L47.1901 4.5902L46.5263 5.33813ZM42.7422 6.10517L43.595 6.62749L43.5964 6.62512L42.7422 6.10517ZM41.8985 10.2984L42.8985 10.3028L42.8985 10.3014L41.8985 10.2984ZM42.265 13.4773L41.3064 13.7623L41.3082 13.7682L42.265 13.4773ZM43.3388 15.3609L42.6693 16.1037L42.6745 16.1083L43.3388 15.3609ZM44.9326 19.4262V18.4262C43.5734 18.4262 42.4581 18.1063 41.5428 17.5071L40.9951 18.3438L40.4474 19.1805C41.7366 20.0245 43.2463 20.4262 44.9326 20.4262V19.4262ZM40.9951 18.3438L41.5458 17.5091C40.6235 16.9006 39.8913 16.0178 39.3623 14.8137L38.4468 15.216L37.5312 15.6182C38.1954 17.13 39.1621 18.3325 40.4443 19.1785L40.9951 18.3438ZM38.4468 15.216L39.3629 14.8152C38.8355 13.6097 38.555 12.1153 38.5604 10.3013L37.5604 10.2984L36.5604 10.2954C36.5544 12.3109 36.8648 14.095 37.5306 15.6168L38.4468 15.216ZM37.5604 10.2984L38.5604 10.3013C38.5658 8.48385 38.8494 7.0039 39.3697 5.82805L38.4553 5.42336L37.5408 5.01866C36.8794 6.51327 36.5664 8.28332 36.5604 10.2954L37.5604 10.2984ZM38.4553 5.42336L39.3689 5.82985C39.8963 4.64448 40.6222 3.78715 41.5325 3.207L40.9951 2.3637L40.4576 1.5204C39.1748 2.33797 38.2074 3.52041 37.5416 5.01686L38.4553 5.42336ZM40.9951 2.3637L41.5336 3.20628C42.4501 2.62047 43.5688 2.30688 44.9326 2.30688V1.30688V0.306879C43.2509 0.306879 41.7445 0.697834 40.4565 1.52111L40.9951 2.3637ZM44.9326 1.30688V2.30688C46.2964 2.30688 47.415 2.62047 48.3315 3.20628L48.8701 2.3637L49.4086 1.52111C48.1206 0.697834 46.6142 0.306879 44.9326 0.306879V1.30688ZM48.8701 2.3637L48.3366 3.2095C49.2574 3.79032 49.9871 4.64721 50.5132 5.82985L51.4269 5.42336L52.3405 5.01686C51.6735 3.51768 50.6987 2.3348 49.4036 1.5179L48.8701 2.3637ZM51.4269 5.42336L50.5132 5.82985C51.038 7.00933 51.3186 8.48672 51.3133 10.2954L52.3133 10.2984L53.3132 10.3013C53.3192 8.29181 53.009 6.5192 52.3405 5.01686L51.4269 5.42336ZM52.3133 10.2984H51.3133C51.3133 12.1192 51.0299 13.6174 50.5022 14.8237L51.4184 15.2245L52.3345 15.6253C53 14.1043 53.3133 12.3184 53.3133 10.2984H52.3133ZM51.4184 15.2245L50.5022 14.8237C49.9731 16.0331 49.2416 16.9139 48.3224 17.5157L48.8701 18.3523L49.4178 19.189C50.7031 18.3476 51.6705 17.1431 52.3345 15.6253L51.4184 15.2245ZM48.8701 18.3523L48.3234 17.515C47.4151 18.108 46.3 18.4262 44.9326 18.4262V19.4262V20.4262C46.622 20.4262 48.1319 20.0285 49.4167 19.1897L48.8701 18.3523ZM44.9326 15.9745V16.9745C46.263 16.9745 47.2916 16.262 47.9947 15.1044L47.14 14.5853L46.2853 14.0662C45.8633 14.7609 45.4203 14.9745 44.9326 14.9745V15.9745ZM47.14 14.5853L47.9961 15.1021C48.701 13.9343 48.981 12.2824 48.9752 10.2954L47.9752 10.2984L46.9752 10.3013C46.9807 12.1666 46.7039 13.3727 46.2838 14.0685L47.14 14.5853ZM47.9752 10.2984H48.9752C48.9752 8.97883 48.8426 7.82939 48.5461 6.88076L47.5917 7.17904L46.6372 7.47731C46.8521 8.16505 46.9752 9.09515 46.9752 10.2984H47.9752ZM47.5917 7.17904L48.5467 6.88264C48.2585 5.95389 47.8268 5.15526 47.1901 4.5902L46.5263 5.33813L45.8625 6.08605C46.1349 6.32782 46.4135 6.75646 46.6366 7.47544L47.5917 7.17904ZM46.5263 5.33813L47.1901 4.5902C46.5525 4.02434 45.7851 3.73302 44.9326 3.73302V4.73302V5.73302C45.296 5.73302 45.591 5.8451 45.8625 6.08605L46.5263 5.33813ZM44.9326 4.73302V3.73302C43.6104 3.73302 42.5868 4.43721 41.888 5.58523L42.7422 6.10517L43.5964 6.62512C44.0113 5.9436 44.4479 5.73302 44.9326 5.73302V4.73302ZM42.7422 6.10517L41.8895 5.58286C41.1885 6.72725 40.9043 8.34808 40.8985 10.2953L41.8985 10.2984L42.8985 10.3014C42.904 8.47591 43.1823 7.30128 43.595 6.62749L42.7422 6.10517ZM41.8985 10.2984L40.8985 10.2939C40.8926 11.6298 41.0189 12.7953 41.3064 13.7623L42.265 13.4773L43.2235 13.1924C43.011 12.4776 42.893 11.5237 42.8985 10.3028L41.8985 10.2984ZM42.265 13.4773L41.3082 13.7682C41.5958 14.714 42.0289 15.5265 42.6693 16.1037L43.3388 15.3609L44.0083 14.618C43.7282 14.3656 43.4455 13.9225 43.2217 13.1864L42.265 13.4773ZM43.3388 15.3609L42.6745 16.1083C43.3132 16.6761 44.0794 16.9745 44.9326 16.9745V15.9745V14.9745C44.5812 14.9745 44.2849 14.8638 44.0032 14.6134L43.3388 15.3609Z" fill="#FFB700" mask="url(#path-1-outside-1_2097_2779)"/>
</svg>
