<svg width="967" height="406" viewBox="0 0 967 406" fill="none" xmlns="http://www.w3.org/2000/svg">
<rect x="90.5" y="0.5" width="788" height="405" rx="33.5" fill="#707CFF" fill-opacity="0.36"/>
<rect x="90.5" y="0.5" width="788" height="405" rx="33.5" stroke="black"/>
<path d="M112.5 356C112.5 353.239 114.739 351 117.5 351H156.5C159.261 351 161.5 353.239 161.5 356V375H112.5V356Z" fill="#8ABBF7"/>
<path d="M211.5 308C211.5 305.239 213.739 303 216.5 303H255.5C258.261 303 260.5 305.239 260.5 308V375H211.5V308Z" fill="#7DB8FF"/>
<path d="M310.5 273C310.5 270.239 312.739 268 315.5 268H354.5C357.261 268 359.5 270.239 359.5 273V375H310.5V273Z" fill="#69ADFF"/>
<path d="M409.5 242C409.5 239.239 411.739 237 414.5 237H453.5C456.261 237 458.5 239.239 458.5 242V375H409.5V242Z" fill="#59A4FF"/>
<path d="M508.5 206C508.5 203.239 510.739 201 513.5 201H552.5C555.261 201 557.5 203.239 557.5 206V375H508.5V206Z" fill="#4E9EFF"/>
<path d="M607.5 172C607.5 169.239 609.739 167 612.5 167H651.5C654.261 167 656.5 169.239 656.5 172V375H607.5V172Z" fill="#3C94FF"/>
<path d="M706.5 125C706.5 122.239 708.739 120 711.5 120H750.5C753.261 120 755.5 122.239 755.5 125V375H706.5V125Z" fill="#2A8AFF"/>
<path d="M805.5 75C805.5 72.2386 807.739 70 810.5 70H849.5C852.261 70 854.5 72.2386 854.5 75V375H805.5V75Z" fill="#147EFF"/>
</svg>
