<svg xmlns="http://www.w3.org/2000/svg" viewBox="0 0 512 512"><defs><style>.cls-1{fill:#f6ea49;}.cls-2{fill:#d1c43f;}.cls-3{fill:#b7177d;}.cls-4{fill:#72aadd;}.cls-5{fill:#74a9cf;}.cls-6{fill:#7cb3e3;}.cls-7{fill:#cc5e9d;}.cls-8{fill:#6798d1;}.cls-9{fill:#cd458f;}.cls-10{fill:#a74283;}.cls-11{fill:#9d3483;}.cls-12{fill:#9c2474;}.cls-13{fill:#fff;}</style></defs><title>Gifts</title><g id="BULINE"><circle class="cls-1" cx="256" cy="256" r="256"/></g><g id="Icons"><path class="cls-2" d="M490.35,359.18A256.59,256.59,0,0,1,355,492.14a253,253,0,0,1-48.86,14.94A256.62,256.62,0,0,1,256,512q-12.09,0-23.89-1.1a256.14,256.14,0,0,1-27.5-4.06q-9.74-2-19.18-4.69a253.66,253.66,0,0,1-34-12.43q-10.65-4.75-20.75-10.45h0A256.91,256.91,0,0,1,21,357.6,249.39,249.39,0,0,1,162.24,210.47a244.47,244.47,0,0,1,26.19-8.91q8-2.24,16.18-3.92a248.71,248.71,0,0,1,37-4.82q6.82-.36,13.76-.37,4.61,0,9.17.17a247.77,247.77,0,0,1,41.62,5c2.76.56,5.5,1.18,8.22,1.84a247.21,247.21,0,0,1,75.55,32.44,250.08,250.08,0,0,1,33.26,25.61q2.28,2.08,4.52,4.24A249,249,0,0,1,490.35,359.18Z"/><path class="cls-3" d="M256.25,147.17,132,79.42a23.7,23.7,0,0,1-5.7-37.24c20.11-20.95,41.09-26.83,53.57-28.38a27.59,27.59,0,0,1,18.94,4.66,173.26,173.26,0,0,1,21.5,17.31C275.33,88.11,256.25,147.17,256.25,147.17Z"/><path class="cls-3" d="M255.2,147.17,379.48,79.42a23.7,23.7,0,0,0,5.7-37.24c-20.12-20.95-41.09-26.83-53.57-28.38a27.58,27.58,0,0,0-18.94,4.66,171.79,171.79,0,0,0-21.5,17.31C236.11,88.11,255.2,147.17,255.2,147.17Z"/><path class="cls-4" d="M427.71,231.93v214A256.23,256.23,0,0,1,355,492.14a253,253,0,0,1-48.86,14.94A256.62,256.62,0,0,1,256,512q-12.09,0-23.89-1.1a256.14,256.14,0,0,1-27.5-4.06q-9.74-2-19.18-4.69a253.66,253.66,0,0,1-34-12.43q-10.65-4.75-20.75-10.45h0a257.09,257.09,0,0,1-54.37-40.94V231.93Z"/><path class="cls-5" d="M450.08,151.59v67.7a12.66,12.66,0,0,1-12.68,12.64H66.56a12.63,12.63,0,0,1-12.64-12.64v-67.7a12.63,12.63,0,0,1,12.64-12.65H437.4A12.66,12.66,0,0,1,450.08,151.59Z"/><path class="cls-6" d="M450.08,151.59v67.7a12.66,12.66,0,0,1-12.68,12.64H174.88a12.63,12.63,0,0,1-12.64-12.64v-67.7a12.63,12.63,0,0,1,12.64-12.65H437.4A12.66,12.66,0,0,1,450.08,151.59Z"/><rect class="cls-7" x="204.61" y="138.94" width="101.55" height="92.99"/><path class="cls-8" d="M427.71,231.93v25.61H184.61V496.82a17.69,17.69,0,0,0,.82,5.33,253.66,253.66,0,0,1-34-12.43q-10.65-4.75-20.75-10.45h0a257.09,257.09,0,0,1-54.37-40.94V231.93Z"/><path class="cls-9" d="M306.16,231.93V507.08A256.62,256.62,0,0,1,256,512q-12.09,0-23.89-1.1a256.14,256.14,0,0,1-27.5-4.06V231.93Z"/><path class="cls-10" d="M306.16,231.93v25.61H232.11V510.9a256.14,256.14,0,0,1-27.5-4.06V231.93Z"/><path class="cls-10" d="M255.37,138.94H86.59C88.43,91.16,111.06,68,124.45,58.42a27.56,27.56,0,0,1,18.86-5,171.74,171.74,0,0,1,27.16,4.91C243.86,78,255.37,138.94,255.37,138.94Z"/><path class="cls-9" d="M255.37,138.94H132.5C134.34,91.16,157,68,170.36,58.42c0,0,.07,0,.11-.07C243.86,78,255.37,138.94,255.37,138.94Z"/><path class="cls-10" d="M255.37,138.94H424.16C422.32,91.16,399.68,68,386.3,58.42a27.58,27.58,0,0,0-18.86-5,171.53,171.53,0,0,0-27.16,4.91C266.89,78,255.37,138.94,255.37,138.94Z"/><path class="cls-9" d="M255.37,138.94H378.24C376.41,91.16,353.77,68,340.38,58.42c0,0-.07,0-.1-.07C266.89,78,255.37,138.94,255.37,138.94Z"/><path class="cls-3" d="M254.83,125.64l2.89-1.34a19.52,19.52,0,0,1,26,9.43L331,235.06a3.54,3.54,0,0,1-3.95,5l-9.75-2.08a15.37,15.37,0,0,0-17.8,10.17l-1,2.85a3.54,3.54,0,0,1-6.57.38L245.39,151.6A19.53,19.53,0,0,1,254.83,125.64Z"/><path class="cls-3" d="M253.11,125.3l2.79,1.55a19.53,19.53,0,0,1,7.6,26.55l-54.29,97.78a3.54,3.54,0,0,1-6.34-.29l-4-9.12a15.38,15.38,0,0,0-18.68-8.45l-2.88.91a3.54,3.54,0,0,1-4.16-5.1l53.44-96.24A19.52,19.52,0,0,1,253.11,125.3Z"/><path class="cls-11" d="M286.42,138.94H224.33a31,31,0,0,1,62.09,0Z"/><path class="cls-12" d="M283.88,138.94h-57a31.06,31.06,0,0,1,57,0Z"/><path class="cls-13" d="M339.53,368.27l2,6.23a3.67,3.67,0,0,0,3.49,2.54h6.55a3.67,3.67,0,0,1,2.16,6.64l-5.3,3.85a3.64,3.64,0,0,0-1.33,4.1l2,6.23A3.67,3.67,0,0,1,343.5,402l-5.3-3.85a3.65,3.65,0,0,0-4.31,0l-5.3,3.85a3.67,3.67,0,0,1-5.65-4.11l2-6.23a3.66,3.66,0,0,0-1.33-4.1l-5.3-3.85a3.67,3.67,0,0,1,2.16-6.64H327a3.67,3.67,0,0,0,3.49-2.54l2-6.23A3.67,3.67,0,0,1,339.53,368.27Z"/><path class="cls-13" d="M401,368.27l2,6.23a3.67,3.67,0,0,0,3.49,2.54H413a3.67,3.67,0,0,1,2.16,6.64l-5.31,3.85a3.67,3.67,0,0,0-1.33,4.1l2,6.23a3.67,3.67,0,0,1-5.65,4.11l-5.3-3.85a3.66,3.66,0,0,0-4.32,0L390,402a3.67,3.67,0,0,1-5.65-4.11l2-6.23a3.66,3.66,0,0,0-1.34-4.1l-5.3-3.85a3.67,3.67,0,0,1,2.16-6.64h6.55A3.67,3.67,0,0,0,392,374.5l2-6.23A3.67,3.67,0,0,1,401,368.27Z"/><path class="cls-13" d="M378.18,481A255.41,255.41,0,0,1,355,492.14a3.7,3.7,0,0,0-.67-.64l-5.3-3.85A3.67,3.67,0,0,1,351.2,481h6.56a3.66,3.66,0,0,0,3.49-2.54l2-6.23a3.67,3.67,0,0,1,7,0l2,6.23a3.66,3.66,0,0,0,3.49,2.54Z"/><path class="cls-13" d="M370.25,274.77l2,6.23a3.67,3.67,0,0,0,3.49,2.54h6.55a3.67,3.67,0,0,1,2.16,6.64l-5.3,3.85a3.66,3.66,0,0,0-1.34,4.1l2,6.23a3.67,3.67,0,0,1-5.65,4.11l-5.3-3.85a3.66,3.66,0,0,0-4.32,0l-5.3,3.85a3.67,3.67,0,0,1-5.64-4.11l2-6.23a3.67,3.67,0,0,0-1.33-4.1l-5.3-3.85a3.67,3.67,0,0,1,2.15-6.64h6.56a3.67,3.67,0,0,0,3.49-2.54l2-6.23A3.67,3.67,0,0,1,370.25,274.77Z"/><path class="cls-13" d="M109.32,368.27l2,6.23a3.67,3.67,0,0,0,3.49,2.54h6.55a3.67,3.67,0,0,1,2.16,6.64l-5.3,3.85a3.64,3.64,0,0,0-1.33,4.1l2,6.23a3.67,3.67,0,0,1-5.65,4.11l-5.3-3.85a3.65,3.65,0,0,0-4.31,0L98.37,402a3.67,3.67,0,0,1-5.65-4.11l2-6.23a3.66,3.66,0,0,0-1.33-4.1l-5.3-3.85A3.67,3.67,0,0,1,90.27,377h6.55a3.67,3.67,0,0,0,3.49-2.54l2-6.23A3.68,3.68,0,0,1,109.32,368.27Z"/><path class="cls-13" d="M170.75,368.27l2,6.23a3.67,3.67,0,0,0,3.49,2.54h6.55a3.67,3.67,0,0,1,2.16,6.64l-5.31,3.85a3.67,3.67,0,0,0-1.33,4.1l2,6.23a3.67,3.67,0,0,1-5.65,4.11l-5.3-3.85a3.66,3.66,0,0,0-4.32,0L159.8,402a3.67,3.67,0,0,1-5.65-4.11l2-6.23a3.66,3.66,0,0,0-1.34-4.1l-5.3-3.85A3.67,3.67,0,0,1,151.7,377h6.55a3.67,3.67,0,0,0,3.49-2.54l2-6.23A3.67,3.67,0,0,1,170.75,368.27Z"/><path class="cls-13" d="M154.26,487.65l-2.85,2.07q-10.65-4.75-20.75-10.45h0a3.8,3.8,0,0,0,.37-.79l2-6.23a3.67,3.67,0,0,1,7,0l2,6.23a3.66,3.66,0,0,0,3.49,2.54h6.55A3.67,3.67,0,0,1,154.26,487.65Z"/><path class="cls-13" d="M140,274.77l2,6.23a3.67,3.67,0,0,0,3.49,2.54h6.55a3.67,3.67,0,0,1,2.16,6.64L149,294a3.66,3.66,0,0,0-1.34,4.1l2,6.23a3.67,3.67,0,0,1-5.65,4.11l-5.3-3.85a3.66,3.66,0,0,0-4.32,0l-5.3,3.85a3.67,3.67,0,0,1-5.64-4.11l2-6.23a3.67,3.67,0,0,0-1.33-4.1l-5.3-3.85a3.67,3.67,0,0,1,2.15-6.64h6.56A3.67,3.67,0,0,0,131,281l2-6.23A3.67,3.67,0,0,1,140,274.77Z"/><path class="cls-13" d="M84.41,167.59l2,6.23a3.67,3.67,0,0,0,3.49,2.53h6.56A3.67,3.67,0,0,1,98.63,183l-5.3,3.86A3.67,3.67,0,0,0,92,191l2,6.23a3.67,3.67,0,0,1-5.64,4.1l-5.3-3.85a3.69,3.69,0,0,0-4.32,0l-5.3,3.85a3.67,3.67,0,0,1-5.65-4.1l2-6.23a3.66,3.66,0,0,0-1.34-4.1L63.2,183a3.67,3.67,0,0,1,2.16-6.64h6.55a3.67,3.67,0,0,0,3.49-2.53l2-6.23A3.67,3.67,0,0,1,84.41,167.59Z"/><path class="cls-13" d="M427.65,167.59l2,6.23a3.67,3.67,0,0,0,3.49,2.53h6.56a3.67,3.67,0,0,1,2.15,6.64l-5.3,3.86a3.67,3.67,0,0,0-1.33,4.1l2,6.23a3.67,3.67,0,0,1-5.64,4.1l-5.31-3.85a3.68,3.68,0,0,0-4.31,0l-5.3,3.85a3.67,3.67,0,0,1-5.65-4.1l2-6.23a3.66,3.66,0,0,0-1.34-4.1l-5.3-3.86a3.67,3.67,0,0,1,2.16-6.64h6.55a3.67,3.67,0,0,0,3.49-2.53l2-6.23A3.67,3.67,0,0,1,427.65,167.59Z"/><path class="cls-13" d="M339.53,167.59l2,6.23a3.67,3.67,0,0,0,3.49,2.53h6.55a3.67,3.67,0,0,1,2.16,6.64l-5.3,3.86a3.64,3.64,0,0,0-1.33,4.1l2,6.23a3.67,3.67,0,0,1-5.65,4.1l-5.3-3.85a3.68,3.68,0,0,0-4.31,0l-5.3,3.85a3.67,3.67,0,0,1-5.65-4.1l2-6.23a3.66,3.66,0,0,0-1.33-4.1l-5.3-3.86a3.67,3.67,0,0,1,2.16-6.64H327a3.67,3.67,0,0,0,3.49-2.53l2-6.23A3.67,3.67,0,0,1,339.53,167.59Z"/><path class="cls-13" d="M174.47,167.59l2,6.23a3.67,3.67,0,0,0,3.49,2.53h6.55A3.67,3.67,0,0,1,188.7,183l-5.3,3.86a3.66,3.66,0,0,0-1.34,4.1l2,6.23a3.67,3.67,0,0,1-5.65,4.1l-5.3-3.85a3.69,3.69,0,0,0-4.32,0l-5.3,3.85a3.67,3.67,0,0,1-5.65-4.1l2-6.23a3.67,3.67,0,0,0-1.33-4.1L153.26,183a3.67,3.67,0,0,1,2.16-6.64H162a3.69,3.69,0,0,0,3.5-2.53l2-6.23A3.67,3.67,0,0,1,174.47,167.59Z"/></g></svg>